<?xml version="1.0" encoding="utf-8"?>
<!-- Generator: Adobe Illustrator 19.0.1, SVG Export Plug-In . SVG Version: 6.00 Build 0)  -->
<svg version="1.1"
	 id="Layer_1" xmlns:cc="http://creativecommons.org/ns#" xmlns:dc="http://purl.org/dc/elements/1.1/" xmlns:inkscape="http://www.inkscape.org/namespaces/inkscape" xmlns:rdf="http://www.w3.org/1999/02/22-rdf-syntax-ns#" xmlns:sodipodi="http://sodipodi.sourceforge.net/DTD/sodipodi-0.dtd" xmlns:svg="http://www.w3.org/2000/svg"
	 xmlns="http://www.w3.org/2000/svg" xmlns:xlink="http://www.w3.org/1999/xlink" x="0px" y="0px" viewBox="75 69 414 414"
	 style="enable-background:new 75 69 414 414;" xml:space="preserve">
<style type="text/css">
	.st0{fill:#65BC54;}
	.st1{fill:#FFFFFF;}
</style>
<g id="g5124">
	<path id="rect2987" class="st0" d="M277.8,88L277.8,88C383.9,88,470,174.1,470,280.2v0C470,381.7,387.7,464,286.2,464
		c0,0-91.2-82-192.2-6c12,45,0,0,0,0c83-95.2,0-186.2,0-186.2c0,0,0,0,0,0C94,170.3,176.3,88,277.8,88z"/>
	<path id="WhatsApp_2_" class="st1" d="M482,270.9c0,107.6-87.9,194.8-196.4,194.8c-34.4,0-66.8-8.8-94.9-24.2L82,476l35.4-104.5
		c-17.9-29.4-28.2-63.8-28.2-100.6C89.3,163.2,177.2,76,285.6,76C394.1,76,482,163.2,482,270.9z M285.6,107
		c-91,0-165.1,73.5-165.1,163.8c0,35.8,11.7,69,31.4,96l-20.6,60.8l63.4-20.2c26.1,17.1,57.3,27.1,90.8,27.1
		c91,0,165.1-73.5,165.1-163.8S376.7,107,285.6,107z M384.8,315.7c-1.2-2-4.4-3.2-9.2-5.6c-4.8-2.4-28.5-13.9-32.9-15.5
		c-4.4-1.6-7.6-2.4-10.8,2.4c-3.2,4.8-12.4,15.5-15.2,18.7c-2.8,3.2-5.6,3.6-10.4,1.2c-4.8-2.4-20.3-7.4-38.7-23.7
		c-14.3-12.7-24-28.3-26.8-33.1c-2.8-4.8-0.3-7.4,2.1-9.7c2.2-2.1,4.8-5.6,7.2-8.4c2.4-2.8,3.2-4.8,4.8-8c1.6-3.2,0.8-6-0.4-8.4
		c-1.2-2.4-10.8-25.9-14.8-35.4c-4-9.6-8-8-10.8-8c-2.8,0-6-0.4-9.2-0.4c-3.2,0-8.4,1.2-12.8,6c-4.4,4.8-16.8,16.3-16.8,39.8
		c0,23.5,17.2,46.2,19.7,49.4c2.4,3.2,33.3,53,82.2,72.1c48.9,19.1,48.9,12.7,57.8,11.9c8.8-0.8,28.5-11.5,32.5-22.7
		C386,327.3,386,317.7,384.8,315.7L384.8,315.7z"/>
</g>
</svg>
